<svg width="68" height="68" viewBox="0 0 68 68" fill="none" xmlns="http://www.w3.org/2000/svg">
<path d="M34 61.6251C49.2569 61.6251 61.6251 49.2569 61.6251 34C61.6251 18.7431 49.2569 6.375 34 6.375C18.7431 6.375 6.375 18.7431 6.375 34C6.375 49.2569 18.7431 61.6251 34 61.6251Z" fill="#DA4A26"/>
<path fill-rule="evenodd" clip-rule="evenodd" d="M33.84 20.4371C33.5714 20.1005 33.2414 19.7742 32.8476 19.4607C32.4062 19.1094 31.8846 18.7714 31.2796 18.4499C30.1152 17.8315 28.8065 17.4003 27.4524 17.1867C26.1317 16.9782 24.7685 16.9789 23.4551 17.2171L23.5008 18.2651C23.5607 18.2705 23.7566 18.3946 23.9775 18.5413C23.291 18.7386 22.6571 19.021 22.6666 19.8589L22.6733 20.4394L23.2477 20.3818C24.2233 20.2842 25.2455 20.3138 26.2467 20.4687C26.5525 20.5161 26.8563 20.5751 27.156 20.6455L27.0124 20.6838C26.3335 20.8692 25.7199 21.0995 25.2112 21.3681C23.6746 22.1756 22.7039 23.3885 22.2182 24.9664C21.7485 26.4923 21.7443 28.347 22.1276 30.4951L22.1297 30.4972C22.6326 33.3053 24.26 41.0024 25.5867 47.2778C26.2437 50.3853 26.8281 53.1492 27.152 54.7289C27.2604 55.2549 27.3192 55.759 27.3353 56.2403C27.3454 56.5417 27.3383 56.8366 27.316 57.1244C27.301 57.317 27.2792 57.5066 27.251 57.6928L28.3011 58.0788L39.5454 58.0242L40.4959 57.3269C40.4259 57.1851 40.3553 57.043 40.2843 56.9007C39.5206 55.3692 38.7073 53.8125 38.0043 52.4669C37.4933 51.4887 37.0411 50.6233 36.7079 49.9575C35.8173 48.1773 34.9271 45.9908 34.4408 43.9024C34.1493 42.6505 34.005 41.4421 34.0986 40.3953C33.5903 40.1868 33.2125 40.0034 33.0373 39.8776L33.037 39.8781C32.5649 39.5395 32.004 38.9445 31.6484 38.2274C31.3623 37.6504 31.2036 36.9907 31.3116 36.3069C31.4169 35.6481 32.2191 34.7558 33.2321 34.0671V34.0649C34.1138 33.4655 35.1829 32.9856 36.0982 32.9256C36.3584 32.9087 36.6398 32.8922 36.8948 32.8774C38.0054 32.8126 38.563 32.7801 39.6996 32.4982C40.0608 32.4088 40.5691 32.2805 41.1449 32.1302C41.2234 30.7788 40.9474 29.2217 40.4463 27.7064C39.7157 25.4972 38.4978 23.3483 37.2048 22.0548C36.7881 21.638 36.2694 21.2982 35.6806 21.0276C35.1202 20.7701 34.4972 20.5755 33.84 20.4372L33.84 20.4371Z" fill="#B5B5B5"/>
<path fill-rule="evenodd" clip-rule="evenodd" d="M34.4376 20.4371C34.1691 20.1005 33.839 19.7742 33.4452 19.4607C33.0039 19.1094 32.4823 18.7714 31.8772 18.4499C30.7128 17.8315 29.4042 17.4003 28.0501 17.1867C26.7293 16.9782 25.3661 16.9789 24.0528 17.2171L24.0984 18.2651C24.1583 18.2705 24.3542 18.3946 24.5752 18.5413C23.8886 18.7386 23.2548 19.021 23.2643 19.8589L23.271 20.4394L23.8454 20.3818C24.8209 20.2842 25.8431 20.3138 26.8444 20.4687C27.1502 20.5161 27.4539 20.5751 27.7537 20.6455L27.6101 20.6838C26.9311 20.8692 26.3175 21.0995 25.8088 21.3681C24.2722 22.1756 23.3016 23.3885 22.8159 24.9664C22.3462 26.4923 22.3419 28.347 22.7253 30.4951L22.7274 30.4972C23.2303 33.3053 24.8576 41.0024 26.1844 47.2778C26.8413 50.3853 27.4257 53.1492 27.7496 54.7289C27.8581 55.2549 27.9169 55.759 27.9329 56.2403C27.943 56.5417 27.936 56.8366 27.9136 57.1244C27.8987 57.317 27.8768 57.5066 27.8487 57.6928L28.8987 58.0788L40.1431 58.0242L41.0935 57.3269C41.0235 57.1851 40.953 57.043 40.882 56.9007C40.1182 55.3692 39.305 53.8125 38.602 52.4669C38.0909 51.4887 37.6388 50.6233 37.3056 49.9575C36.4149 48.1773 35.5247 45.9908 35.0384 43.9024C34.7469 42.6505 34.6026 41.4421 34.6963 40.3953C34.1879 40.1868 33.8101 40.0034 33.635 39.8776L33.6347 39.8781C33.1625 39.5395 32.6017 38.9445 32.246 38.2274C31.96 37.6504 31.8012 36.9907 31.9092 36.3069C32.0145 35.6481 32.8168 34.7558 33.8298 34.0671V34.0649C34.7115 33.4655 35.7805 32.9856 36.6958 32.9256C36.956 32.9087 37.2375 32.8922 37.4924 32.8774C38.6031 32.8126 39.1606 32.7801 40.2972 32.4982C40.6585 32.4088 41.1668 32.2805 41.7425 32.1302C41.821 30.7788 41.5451 29.2217 41.0439 27.7064C40.3134 25.4972 39.0955 23.3483 37.8024 22.0548C37.3858 21.638 36.8671 21.2982 36.2782 21.0276C35.7178 20.7701 35.0948 20.5755 34.4376 20.4372L34.4376 20.4371Z" fill="#FEFEFE"/>
<path fill-rule="evenodd" clip-rule="evenodd" d="M58.9688 34C58.9688 27.3563 56.353 21.0425 51.6553 16.3448C46.9575 11.6471 40.6437 9.03125 34 9.03125C27.3563 9.03125 21.0425 11.6471 16.3448 16.3448C11.6471 21.0425 9.03125 27.3563 9.03125 34C9.03125 40.6437 11.6472 46.9574 16.3449 51.655C21.0426 56.3526 27.3564 58.9685 34 58.9685C40.6437 58.9685 46.9575 56.3526 51.6552 51.655C56.3529 46.9574 58.9688 40.6437 58.9688 34H58.9688ZM50.9039 50.9037C46.4061 55.4015 40.361 57.9059 34 57.9059C27.639 57.9059 21.5939 55.4015 17.0961 50.9037C12.5983 46.4059 10.0938 40.3609 10.0938 34C10.0938 27.639 12.5982 21.5939 17.0961 17.0961C21.5939 12.5982 27.639 10.0938 34 10.0938C40.3611 10.0938 46.4062 12.5982 50.904 17.096C55.4019 21.5938 57.9063 27.639 57.9063 34C57.9063 40.361 55.4017 46.406 50.9039 50.9037L50.9039 50.9037Z" fill="#FEFEFE"/>
<path d="M47.7678 39.0945C47.7677 39.0924 47.7675 39.0933 47.7671 39.0947L47.7678 39.0945Z" fill="#212121"/>
<path d="M49.7985 32.4359C49.7996 32.4302 49.7976 32.4341 49.7944 32.4399L49.7985 32.4359Z" fill="#212121"/>
<path fill-rule="evenodd" clip-rule="evenodd" d="M49.5575 30.6132C48.5974 30.2367 47.0709 30.1922 46.459 30.4878C46.0771 30.6726 45.2722 30.9355 44.3484 31.2085C43.4938 31.4611 42.559 31.7164 41.7537 31.9291C41.1664 32.0842 40.6479 32.2166 40.2794 32.3088C39.12 32.5996 38.5513 32.6332 37.4184 32.7C37.1583 32.7153 36.8712 32.7323 36.6058 32.7497C35.6722 32.8117 34.5817 33.3067 33.6823 33.9251V33.9273C32.649 34.6379 31.8306 35.5584 31.7232 36.2381C31.6131 36.9436 31.775 37.6242 32.0668 38.2194C32.4295 38.9592 33.0017 39.5731 33.4833 39.9224L33.4836 39.9219C33.6622 40.0517 34.0476 40.2409 34.5662 40.456C35.4305 40.8145 36.6647 41.245 37.928 41.5926C39.3758 41.991 40.887 42.2916 41.9684 42.2703C43.1061 42.2474 44.5494 41.9211 45.7716 41.4511C46.507 41.1683 47.1731 40.83 47.6602 40.4691C48.2528 40.0302 48.6131 39.5256 48.6031 38.9837C48.6008 38.8547 48.5794 38.7304 48.5377 38.6115L48.537 38.6118C48.152 37.5142 46.8647 37.8286 45.0332 38.2761C43.4773 38.6561 41.4493 39.1515 39.4215 38.9546C38.3405 38.8495 37.6138 38.6023 37.1678 38.2861C36.9698 38.1459 36.838 37.9983 36.7634 37.8509C36.6983 37.7225 36.6746 37.5905 36.686 37.4619C36.6989 37.3151 36.7583 37.1614 36.8554 37.0112L36.8539 37.0102C37.1149 36.6079 37.6204 36.6875 38.3124 36.7966C39.1727 36.9322 40.2449 37.1013 41.6002 36.6768C42.916 36.2659 44.5141 35.6841 45.9559 35.1034C47.3639 34.5363 48.6148 33.9719 49.3009 33.57C50.1462 33.0762 50.5483 32.593 50.6485 32.1468C50.739 31.7432 50.619 31.4003 50.3529 31.1152C50.158 30.9062 49.8796 30.7396 49.5575 30.6132L49.5575 30.6132Z" fill="#FFCA28"/>
<path fill-rule="evenodd" clip-rule="evenodd" d="M28.4388 55.3746L27.8545 47.428C28.2214 46.6744 33.113 49.0019 34.242 49.3741L34.5986 53.5092C33.5522 54.0684 29.0857 57.2343 28.4388 55.3746L28.4388 55.3746Z" fill="#64BB46"/>
<path fill-rule="evenodd" clip-rule="evenodd" d="M33.3979 50.0512C33.3979 50.0512 35.747 48.2861 37.7415 49.2833C37.7415 49.2833 38.3065 52.442 37.7415 53.2722C37.7415 53.2722 36.1906 54.1535 33.4758 53.7128L33.398 50.0512L33.3979 50.0512Z" fill="#43A144"/>
<path fill-rule="evenodd" clip-rule="evenodd" d="M33.6494 49.746C33.6494 49.746 35.9985 47.9809 37.9929 48.9781C37.9929 48.9781 38.558 52.1368 37.9929 52.967C37.9929 52.967 36.4421 53.8483 33.7273 53.4077L33.6494 49.746L33.6494 49.746Z" fill="#64BB46"/>
<path fill-rule="evenodd" clip-rule="evenodd" d="M37.5152 49.629C39.2155 48.5992 44.6122 43.939 44.04 48.4214L43.9119 53.8357C43.9223 54.0504 43.8184 54.1365 43.621 54.1175L37.0479 52.5115L37.5153 49.629L37.5152 49.629Z" fill="#64BB46"/>
<path d="M27.8713 32.0781C28.7519 32.0781 29.4658 31.3642 29.4658 30.4836C29.4658 29.603 28.7519 28.8892 27.8713 28.8892C26.9907 28.8892 26.2769 29.603 26.2769 30.4836C26.2769 31.3642 26.9907 32.0781 27.8713 32.0781Z" fill="#2C4F8E"/>
<path d="M28.5939 30.3509C28.8187 30.3509 29.0008 30.1688 29.0008 29.944C29.0008 29.7193 28.8187 29.5371 28.5939 29.5371C28.3692 29.5371 28.187 29.7193 28.187 29.944C28.187 30.1688 28.3692 30.3509 28.5939 30.3509Z" fill="#FFFFFE"/>
<path d="M36.1928 30.3143C36.9473 30.3143 37.5589 29.7027 37.5589 28.9482C37.5589 28.1937 36.9473 27.582 36.1928 27.582C35.4383 27.582 34.8267 28.1937 34.8267 28.9482C34.8267 29.7027 35.4383 30.3143 36.1928 30.3143Z" fill="#2C4F8E"/>
<path d="M36.812 28.8345C37.0046 28.8345 37.1607 28.6784 37.1607 28.4859C37.1607 28.2933 37.0046 28.1372 36.812 28.1372C36.6195 28.1372 36.4634 28.2933 36.4634 28.4859C36.4634 28.6784 36.6195 28.8345 36.812 28.8345Z" fill="#FFFFFE"/>
<path fill-rule="evenodd" clip-rule="evenodd" d="M26.1881 26.3019C27.3252 25.5874 28.4942 26.1163 28.4942 26.1163C28.4942 26.1163 27.7102 25.082 26.1 25.7412C24.4919 26.3999 25.0953 27.7447 25.0953 27.7447C25.0953 27.7447 25.053 27.015 26.1881 26.3019V26.3019Z" fill="#2C4F8E"/>
<path fill-rule="evenodd" clip-rule="evenodd" d="M36.0223 25.2376C34.3084 24.9551 34.0835 26.3657 34.0835 26.3657C34.0835 26.3657 34.4493 25.7744 35.7883 25.7567C36.4404 25.748 37.2806 26.2281 37.2806 26.2281C37.2806 26.2281 36.9508 25.3921 36.0223 25.2376H36.0223Z" fill="#2C4F8E"/>
</svg>
